<svg xmlns="http://www.w3.org/2000/svg" viewBox="0 0 491.98 108"><defs><style>.cls-1{fill:#e9c46a;}.cls-2{fill:#363636;}</style></defs><g id="Layer_2" data-name="Layer 2"><g id="Layer_1-2" data-name="Layer 1"><path class="cls-1" d="M102.86,77A54,54,0,0,0,46,.59L83.79,66Z"/><path class="cls-1" d="M37,2.72A54.11,54.11,0,0,0,9.65,23.2l58.8,34Z"/><path class="cls-1" d="M5.2,30.85A54.21,54.21,0,0,0,2.5,70.29L38,49.8Z"/><path class="cls-1" d="M5.9,78.56a54,54,0,0,0,92.54,6.12L46.86,54.91Z"/><path class="cls-2" d="M181.09,13.64h7.13v28h-7.13V38.8a13.16,13.16,0,0,1-9,3.45c-7.45,0-13.7-5.65-13.7-14.63S164.6,13,172.05,13a13.16,13.16,0,0,1,9,3.45Zm0,19.57V22a11.33,11.33,0,0,0-7.5-3.12c-4.39,0-8.17,3.28-8.22,8.71s3.83,8.71,8.22,8.71A11.38,11.38,0,0,0,181.09,33.21Z"/><path class="cls-2" d="M195.06,40.17V34.41a20,20,0,0,0,9.26,2.36c2.47,0,5-1,5-3,0-1.53-1.2-2.35-2.9-2.79l-4.93-1.32c-5-1.31-6.85-4.54-6.85-8.38,0-5.15,5-8.27,11.34-8.27,3.23,0,6.57.76,8.27,1.81v5.64a18.39,18.39,0,0,0-8.33-1.86c-2.3,0-4.33.82-4.33,2.85,0,1.42,1.16,2.24,3,2.74l4.55,1.31c5.7,1.53,7.18,4.77,7.18,8.38,0,5.7-5.26,8.39-11.84,8.39C200.93,42.25,196.82,41.26,195.06,40.17Z"/><path class="cls-2" d="M220.87,40.17V34.41a20,20,0,0,0,9.26,2.36c2.47,0,5-1,5-3,0-1.53-1.21-2.35-2.91-2.79l-4.93-1.32c-5-1.31-6.85-4.54-6.85-8.38,0-5.15,5-8.27,11.35-8.27,3.23,0,6.57.76,8.27,1.81v5.64a18.42,18.42,0,0,0-8.33-1.86c-2.3,0-4.33.82-4.33,2.85,0,1.42,1.15,2.24,3,2.74l4.55,1.31c5.7,1.53,7.18,4.77,7.18,8.38,0,5.7-5.26,8.39-11.84,8.39C226.73,42.25,222.63,41.26,220.87,40.17Z"/><path class="cls-2" d="M246,27.62C246,19.07,252.71,13,261.15,13s15.17,6.08,15.17,14.63-6.74,14.63-15.17,14.63S246,36.11,246,27.62Zm23.39,0a8.2,8.2,0,1,0-16.38,0,8.2,8.2,0,1,0,16.38,0Z"/><path class="cls-2" d="M280.54,27.62C280.54,18.85,287.33,13,296,13a17.08,17.08,0,0,1,7.62,1.7v6.46h-.38A11.18,11.18,0,0,0,296.6,19c-5,0-9.1,3.46-9.1,8.61s4.11,8.6,9.1,8.6a11.67,11.67,0,0,0,6.68-2.14h.33v6.47a17.08,17.08,0,0,1-7.62,1.7C287.33,42.25,280.54,36.38,280.54,27.62Z"/><path class="cls-2" d="M309.2,4.22a4.41,4.41,0,0,1,8.82,0,4.41,4.41,0,0,1-8.82,0Zm.87,37.37V13.64h7.07v28Z"/><path class="cls-2" d="M346.07,13.64h7.13v28h-7.13V38.8a13.16,13.16,0,0,1-9,3.45c-7.45,0-13.7-5.65-13.7-14.63S329.58,13,337,13a13.16,13.16,0,0,1,9,3.45Zm0,19.57V22a11.33,11.33,0,0,0-7.5-3.12c-4.39,0-8.17,3.28-8.22,8.71s3.83,8.71,8.22,8.71A11.38,11.38,0,0,0,346.07,33.21Z"/><path class="cls-2" d="M384.37,13.64V14.8L369.69,35.67h14.14v5.92H359.17l-.83-1.15L373,19.56h-13.1V13.64Z"/><path class="cls-2" d="M389.19,4.22a4.42,4.42,0,0,1,8.83,0,4.42,4.42,0,0,1-8.83,0Zm.88,37.37V13.64h7.07v28Z"/><path class="cls-2" d="M403.27,27.62C403.27,19.07,410,13,418.45,13s15.18,6.08,15.18,14.63-6.74,14.63-15.18,14.63S403.27,36.11,403.27,27.62Zm23.4,0a8.2,8.2,0,1,0-16.38,0,8.2,8.2,0,1,0,16.38,0Z"/><path class="cls-2" d="M466.12,24V41.59h-7.07V24.88c0-3.73-2.19-5.81-5.48-5.81a8.71,8.71,0,0,0-6.74,3.78V41.59h-7.06V13.64h7.06V17.1A12,12,0,0,1,455.88,13C461.79,13,466.12,16.82,466.12,24Z"/><path class="cls-2" d="M473,4.22a4.42,4.42,0,0,1,8.83,0,4.42,4.42,0,0,1-8.83,0Zm.88,37.37V13.64H481v28Z"/><path class="cls-2" d="M181.09,66.24h7.13v41.1h-7.13v-2.79a13.16,13.16,0,0,1-9,3.45c-7.45,0-13.7-5.64-13.7-14.63s6.25-14.63,13.7-14.63a13.16,13.16,0,0,1,9,3.45Zm0,32.72V87.78a11.33,11.33,0,0,0-7.5-3.12c-4.39,0-8.17,3.28-8.22,8.71s3.83,8.71,8.22,8.71A11.33,11.33,0,0,0,181.09,99Z"/><path class="cls-2" d="M221.59,92.71a17.24,17.24,0,0,1-.11,1.76H201.15c.6,5,4,7.89,9,7.89a26.62,26.62,0,0,0,9.76-2.2v5.48A24.74,24.74,0,0,1,209.31,108c-9.48,0-14.85-6.41-14.85-14.85,0-9,6.08-14.41,14.14-14.41C217,78.74,221.64,84.6,221.59,92.71ZM201.48,90H215c-.5-3.51-2.74-5.64-6.36-5.64A7,7,0,0,0,201.48,90Z"/><path class="cls-2" d="M227.28,96.71V66.24h7.07V96c0,3.78,1.7,5.81,4.49,5.81a13.66,13.66,0,0,0,2-.17v6.09a23.26,23.26,0,0,1-3.18.27C230.24,108,227.28,102.79,227.28,96.71Z"/><path class="cls-2" d="M273.91,101.31v5.92a21,21,0,0,1-5.81.77c-8.71,0-11.45-6.36-11.45-12.82V75.45l6.36-4h.71v8h9.37v5.7h-9.37V95.23c0,3.89,1.86,6.69,5.81,6.69A16.31,16.31,0,0,0,273.91,101.31Z"/><path class="cls-2" d="M303.88,92.71a14.78,14.78,0,0,1-.11,1.76H283.44c.61,5,4,7.89,9,7.89a26.53,26.53,0,0,0,9.75-2.2v5.48A24.73,24.73,0,0,1,291.61,108c-9.48,0-14.85-6.41-14.85-14.85,0-9,6.08-14.41,14.14-14.41C299.28,78.74,303.94,84.6,303.88,92.71ZM283.77,90h13.48c-.49-3.51-2.74-5.64-6.35-5.64A7.06,7.06,0,0,0,283.77,90Z"/><path class="cls-2" d="M327.11,78.79v7.62a10.79,10.79,0,0,0-2.79-.33A11.88,11.88,0,0,0,317,88.49v18.85H310V79.4H317v4.82c2-2.8,5.43-5.48,9.15-5.48A4.76,4.76,0,0,1,327.11,78.79Z"/><path class="cls-2" d="M349.52,78.79v7.62a10.79,10.79,0,0,0-2.79-.33,11.88,11.88,0,0,0-7.29,2.41v18.85h-7.07V79.4h7.07v4.82c2-2.8,5.43-5.48,9.15-5.48A4.76,4.76,0,0,1,349.52,78.79Z"/><path class="cls-2" d="M353.91,70a4.41,4.41,0,1,1,4.38,4.22A4.26,4.26,0,0,1,353.91,70Zm.87,37.37V79.4h7.07v27.94Z"/><path class="cls-2" d="M386.78,101.31v5.92A21,21,0,0,1,381,108c-8.71,0-11.45-6.36-11.45-12.82V75.45l6.36-4h.71v8H386v5.7h-9.37V95.23c0,3.89,1.86,6.69,5.81,6.69A16.31,16.31,0,0,0,386.78,101.31Z"/><path class="cls-2" d="M389.52,93.37c0-8.55,6.74-14.63,15.18-14.63s15.18,6.08,15.18,14.63S413.14,108,404.7,108,389.52,101.86,389.52,93.37Zm23.4,0a8.2,8.2,0,1,0-8.22,8.49A8.27,8.27,0,0,0,412.92,93.37Z"/><path class="cls-2" d="M443.16,78.79v7.62a10.79,10.79,0,0,0-2.79-.33,11.88,11.88,0,0,0-7.29,2.41v18.85H426V79.4h7.07v4.82c2-2.8,5.43-5.48,9.15-5.48A4.82,4.82,0,0,1,443.16,78.79Z"/><path class="cls-2" d="M447.55,70a4.41,4.41,0,1,1,4.38,4.22A4.26,4.26,0,0,1,447.55,70Zm.87,37.37V79.4h7.07v27.94Z"/><path class="cls-2" d="M461.63,93.37c0-8.55,6.74-14.63,15.18-14.63S492,84.82,492,93.37,485.24,108,476.81,108,461.63,101.86,461.63,93.37Zm23.4,0a8.2,8.2,0,1,0-8.22,8.49A8.27,8.27,0,0,0,485,93.37Z"/></g></g></svg>